<?xml version="1.0" standalone="no"?>
<!DOCTYPE svg PUBLIC "-//W3C//DTD SVG 20010904//EN"
 "http://www.w3.org/TR/2001/REC-SVG-20010904/DTD/svg10.dtd">
<svg version="1.0" xmlns="http://www.w3.org/2000/svg"
 width="198.000000pt" height="198.000000pt" viewBox="0 0 198.000000 198.000000"
 preserveAspectRatio="xMidYMid meet">

<g transform="translate(0.000000,198.000000) scale(0.100000,-0.100000)"
fill="#000000" stroke="none">
<path d="M22 1964 l-22 -15 0 -975 0 -974 988 2 987 3 3 956 2 957 -35 31 -36
31 -932 0 c-828 0 -935 -2 -955 -16z m778 -229 l0 -75 -265 0 -265 0 0 -130 0
-130 -75 0 -75 0 0 205 0 205 340 0 340 0 0 -75z m1030 -130 l0 -205 -75 0
-75 0 0 130 0 130 -215 0 -215 0 0 -170 0 -170 -230 0 -230 0 0 -180 0 -180
115 0 115 0 0 -75 0 -75 -307 2 -308 3 0 70 0 70 118 3 117 3 0 259 0 260 235
0 235 0 0 165 0 165 360 0 360 0 0 -205z m-840 185 c25 -14 41 -61 27 -86 -26
-47 -61 -55 -101 -23 -35 28 -35 70 0 98 30 23 46 26 74 11z m-440 -390 l0
-80 -75 0 -75 0 0 80 0 80 75 0 75 0 0 -80z m990 -435 l0 -515 -562 0 c-309 0
-559 2 -557 3 2 2 41 36 86 75 l82 72 261 0 261 0 -1 258 c0 141 0 263 0 270
0 8 21 12 70 12 l70 0 0 -270 0 -270 70 0 70 0 0 440 0 440 75 0 75 0 0 -515z
m-1014 269 c30 -29 27 -67 -8 -96 -27 -23 -49 -23 -82 3 -33 26 -35 70 -4 99
29 27 64 25 94 -6z m-273 -14 c53 -42 43 -120 -19 -146 -68 -28 -124 7 -124
76 0 78 82 118 143 70z m1560 2 c51 -56 38 -130 -27 -152 -64 -21 -112 8 -123
73 -5 31 -1 40 25 67 36 36 98 42 125 12z m-814 -108 c25 -32 26 -52 5 -82
-20 -29 -74 -30 -99 -2 -24 27 -22 70 5 92 32 26 65 22 89 -8z m-746 -234 c49
-39 42 -116 -14 -145 -40 -21 -63 -19 -98 11 -26 21 -31 33 -31 69 0 35 5 48
26 64 34 26 84 27 117 1z m1564 -2 c31 -34 36 -63 18 -101 -15 -33 -50 -57
-80 -57 -28 0 -67 25 -81 51 -20 40 -17 63 12 98 21 26 33 31 68 31 31 0 48
-6 63 -22z m-1547 -453 l0 -155 265 0 265 0 0 -75 0 -75 -340 0 -340 0 0 223
c0 123 3 227 7 230 3 4 37 7 75 7 l68 0 0 -155z m1560 -75 l0 -230 -280 0
-280 0 0 75 0 75 205 0 205 0 0 155 0 155 75 0 75 0 0 -230z m-826 -109 c39
-44 -9 -133 -63 -116 -47 15 -62 101 -22 125 26 15 67 11 85 -9z"/>
<path d="M167 1183 c-4 -3 -7 -19 -7 -34 0 -19 6 -30 20 -34 39 -12 66 35 38
63 -13 13 -41 16 -51 5z"/>
<path d="M1730 1175 c-26 -31 13 -82 44 -56 19 16 21 42 4 59 -16 16 -33 15
-48 -3z"/>
<path d="M164 836 c-12 -31 0 -51 31 -51 27 0 30 3 30 30 0 25 -4 30 -28 33
-17 2 -29 -2 -33 -12z"/>
<path d="M1724 836 c-11 -28 1 -51 27 -54 34 -4 54 20 39 47 -12 24 -58 29
-66 7z"/>
</g>
</svg>
